<svg class="w-6 h-6" width="24" height="24" viewBox="0 0 24 24" fill="none" xmlns="http://www.w3.org/2000/svg"><path d="M21.7178 1.04003C22.0647 0.937902 22.4455 1.03144 22.707 1.29296C23.0058 1.59176 23.0842 2.04582 22.9033 2.42772L13.9033 21.4277C13.7225 21.8094 13.3217 22.0367 12.9014 21.9951C12.4811 21.9534 12.1327 21.6519 12.0303 21.2422L10.1758 13.8242L2.75782 11.9697C2.34808 11.8673 2.04654 11.5189 2.00489 11.0986C1.96327 10.6783 2.19055 10.2775 2.57227 10.0967L21.5723 1.09667L21.7178 1.04003ZM5.95117 10.707L11.2422 12.0303L11.373 12.0723C11.6678 12.1907 11.8914 12.4443 11.9697 12.7578L13.292 18.0478L19.8984 4.10057L5.95117 10.707Z" fill="#686583" style="fill-opacity:1;"/></svg>